<?xml version="1.0" encoding="UTF-8"?>
<!DOCTYPE svg PUBLIC "-//W3C//DTD SVG 1.1//EN" "http://www.w3.org/Graphics/SVG/1.1/DTD/svg11.dtd">
<!-- Creator: CorelDRAW 2017 -->
<svg xmlns="http://www.w3.org/2000/svg" xml:space="preserve" width="10in" height="10in" version="1.1" style="shape-rendering:geometricPrecision; text-rendering:geometricPrecision; image-rendering:optimizeQuality; fill-rule:evenodd; clip-rule:evenodd"
viewBox="0 0 1000000 1000000"
 xmlns:xlink="http://www.w3.org/1999/xlink">
 <defs>
  <style type="text/css">
   <![CDATA[
    .fil0 {fill:#00C3A5}
   ]]>
  </style>
 </defs>
 <g id="Layer_x0020_1">
  <metadata id="CorelCorpID_0Corel-Layer"/>
  <path class="fil0" d="M523887 628422c10531,-25821 40159,-61953 70380,-80594l66913 110708 -68537 49797 -68756 -79911zm-98841 79792l-94342 -60679c71427,-133513 204896,-228591 361771,-246304l26274 80942c-129302,25469 -237206,110819 -293703,226042zm20589 -274797l11924 -141750 84746 0 10767 128190c-48625,16677 -77222,30000 -109985,50141 -24187,14833 -46184,32190 -65865,52096l-95972 -40517 26160 -80708 138225 32549z"/>
 </g>
</svg>
